<svg width="24" height="24" viewBox="0 0 24 24" fill="none" xmlns="http://www.w3.org/2000/svg">
<path d="M13.05 4.14V4.08C13.05 3.8 13.14 3.55 13.32 3.33C13.5 3.11 13.73 3 14.01 3C14.29 3 14.54 3.09 14.76 3.27C14.98 3.45 15.1 3.69 15.12 3.99C15.14 4.29 15.05 4.54 14.85 4.74C14.65 4.94 14.41 5.04 14.13 5.04L13.95 5.1L14.01 5.19L13.95 5.52L13.83 6.48C13.87 6.52 13.89 6.56 13.89 6.6L13.77 7.2C13.73 7.28 13.69 7.34 13.65 7.38L13.59 7.62C13.51 7.94 13.44 8.2 13.38 8.4C13.32 8.6 13.27 8.76 13.23 8.88V9C13.19 9.2 13.16 9.36 13.14 9.48C13.12 9.6 13.05 9.8 12.93 10.08C12.85 10.24 12.85 10.5 12.93 10.86L12.99 10.92C12.99 11.04 13.04 11.18 13.14 11.34C13.24 11.5 13.29 11.64 13.29 11.76C13.33 12.56 13.27 13.24 13.11 13.8L13.23 14.16C13.71 14.4 13.85 14.66 13.65 14.94L13.95 15.06C14.43 15.3 14.77 15.51 14.97 15.69C15.17 15.87 15.37 16.06 15.57 16.26C15.73 16.3 15.85 16.36 15.93 16.44L16.11 16.5C16.95 17.06 17.79 17.74 18.63 18.54L18.87 18.72V18.78L18.81 18.9L18.99 19.02H19.05C19.17 19.1 19.25 19.14 19.29 19.14H19.35C19.39 19.14 19.43 19.12 19.47 19.08L19.59 19.02C19.67 18.94 19.75 18.88 19.83 18.84H20.07C20.11 18.84 20.11 18.86 20.07 18.9L19.83 19.02L19.53 19.38H19.95L20.37 19.44C20.49 19.4 20.59 19.36 20.67 19.32L20.97 19.14C21.09 19.1 21.21 19.14 21.33 19.26H21.39C21.43 19.3 21.41 19.36 21.33 19.44L20.61 20.1C20.41 20.26 20.23 20.36 20.07 20.4L19.29 20.94C19.25 20.98 19.21 20.98 19.17 20.94L18.99 20.7L18.87 20.46L18.72 20.25L18.54 20.01L18.39 19.83L18.27 19.68L18.03 19.5C17.95 19.5 17.87 19.48 17.79 19.44L17.01 18.84C16.89 18.84 16.75 18.78 16.59 18.66C15.99 18.14 15.59 17.82 15.39 17.7L15.03 17.46L14.31 17.34C14.07 17.3 13.75 17.18 13.35 16.98L12.87 16.74C12.55 16.58 12.33 16.5 12.21 16.5L11.97 16.38C11.81 16.34 11.69 16.3 11.61 16.26L11.49 16.14C11.41 16.14 11.33 16.16 11.25 16.2L10.05 16.8L8.55 17.46C8.15 17.78 7.77 18.04 7.41 18.24L6.75 18.54L5.73 19.26C5.65 19.34 5.57 19.34 5.49 19.26L5.37 19.38C5.25 19.42 5.17 19.44 5.13 19.44L4.89 19.56V19.68H4.77L4.65 19.86C4.57 20.02 4.49 20.11 4.41 20.13C4.33 20.15 4.28 20.18 4.26 20.22C4.24 20.26 4.22 20.29 4.2 20.31L4.08 20.43L3.9 20.55L3.63 20.52L3.27 20.58L3.03 20.64C2.83 20.68 2.67 20.65 2.55 20.55C2.43 20.45 2.33 20.3 2.25 20.1C2.17 19.98 2.21 19.88 2.37 19.8L2.43 19.74C2.47 19.7 2.53 19.68 2.61 19.68H2.97L3.45 19.5L3.69 19.44C3.69 19.36 3.71 19.3 3.75 19.26C3.79 19.22 3.85 19.2 3.93 19.2V19.14C3.89 19.06 3.87 18.98 3.87 18.9C3.83 18.82 3.82 18.76 3.84 18.72C3.86 18.68 3.88 18.66 3.9 18.66H3.93L3.99 18.84C4.03 19.04 4.09 19.1 4.17 19.02L4.23 18.9C4.27 18.82 4.33 18.78 4.41 18.78L4.53 18.9L4.65 18.78L4.59 18.72C4.59 18.68 4.61 18.66 4.65 18.66L4.89 18.42C5.09 18.18 5.33 17.96 5.61 17.76C6.17 17.32 6.77 16.98 7.41 16.74C7.61 16.54 7.83 16.44 8.07 16.44C8.23 16.16 8.47 15.86 8.79 15.54C9.07 15.34 9.27 15.2 9.39 15.12C9.47 14.96 9.57 14.88 9.69 14.88H9.75L9.87 14.76C9.95 14.72 10.01 14.68 10.05 14.64V14.34C10.05 14.14 10.07 13.98 10.11 13.86C10.15 13.74 10.25 13.68 10.41 13.68L10.65 13.44C10.57 13.28 10.53 13.1 10.53 12.9H10.47C10.39 12.78 10.35 12.66 10.35 12.54C10.23 12.34 10.15 12.18 10.11 12.06H9.93C9.89 12.18 9.79 12.26 9.63 12.3L9.57 12.42C9.41 12.7 9.27 12.91 9.15 13.05C9.03 13.19 8.81 13.36 8.49 13.56C8.29 13.76 8.15 13.98 8.07 14.22C8.03 14.34 8.03 14.46 8.07 14.58L8.01 14.7H8.07C8.07 14.78 8.09 14.82 8.13 14.82H8.19C8.27 14.86 8.31 14.91 8.31 14.97C8.31 15.03 8.25 15.05 8.13 15.03C8.01 15.01 7.92 14.97 7.86 14.91C7.8 14.85 7.75 14.82 7.71 14.82L7.53 15C7.45 15.12 7.37 15.17 7.29 15.15C7.21 15.13 7.19 15.1 7.23 15.06L7.29 15C7.33 14.92 7.33 14.88 7.29 14.88L6.81 15C6.77 15.04 6.72 15.04 6.66 15C6.6 14.96 6.61 14.92 6.69 14.88L6.99 14.76C6.99 14.72 6.97 14.7 6.93 14.7C6.77 14.78 6.61 14.8 6.45 14.76L6.15 14.7L6.09 14.64C6.09 14.6 6.11 14.58 6.15 14.58C6.31 14.62 6.51 14.6 6.75 14.52L7.17 14.34L7.65 13.8L7.71 13.68C7.87 13.36 8.04 13.07 8.22 12.81C8.4 12.55 8.59 12.34 8.79 12.18L8.85 11.94C8.93 11.78 9.01 11.64 9.09 11.52C9.17 11.4 9.27 11.24 9.39 11.04L9.57 10.8C9.73 10.56 9.91 10.44 10.11 10.44L10.29 10.26C10.33 10.22 10.35 10.16 10.35 10.08L10.47 9.96L10.41 9.9C10.17 9.7 10.05 9.52 10.05 9.36C10.01 9.08 10.1 8.84 10.32 8.64C10.54 8.44 10.76 8.35 10.98 8.37C11.2 8.39 11.37 8.46 11.49 8.58L11.61 8.7C11.65 8.7 11.67 8.72 11.67 8.76L11.91 8.88V9.06C11.99 9.14 12.03 9.2 12.03 9.24C12.11 9.12 12.23 8.98 12.39 8.82L12.69 7.86C12.69 7.7 12.73 7.54 12.81 7.38L12.93 7.2V7.08L13.11 6.36H13.23L13.41 5.64C13.45 5.52 13.45 5.38 13.41 5.22L13.17 4.62L13.05 4.14Z" fill="white"/>
</svg>
